<svg width="67" height="59" viewBox="0 0 67 59" fill="none" xmlns="http://www.w3.org/2000/svg">
<g clip-path="url(#clip0_60_2)">
<path d="M13.5833 59.1667C12.0479 59.1667 10.7335 58.6852 9.6401 57.7224C8.5467 56.7595 8 55.6021 8 54.25V19.8333C8 18.4812 8.5467 17.3238 9.6401 16.3609C10.7335 15.3981 12.0479 14.9167 13.5833 14.9167H16.375V10H21.9583V14.9167H44.2917V10H49.875V14.9167H52.6667C54.2021 14.9167 55.5165 15.3981 56.6099 16.3609C57.7033 17.3238 58.25 18.4812 58.25 19.8333V54.25C58.25 55.6021 57.7033 56.7595 56.6099 57.7224C55.5165 58.6852 54.2021 59.1667 52.6667 59.1667H13.5833ZM13.5833 54.25H52.6667V29.6667H13.5833V54.25ZM13.5833 24.75H52.6667V19.8333H13.5833V24.75ZM33.125 39.5C32.334 39.5 31.671 39.2644 31.1359 38.7932C30.6009 38.322 30.3333 37.7382 30.3333 37.0417C30.3333 36.3451 30.6009 35.7613 31.1359 35.2901C31.671 34.8189 32.334 34.5833 33.125 34.5833C33.916 34.5833 34.579 34.8189 35.1141 35.2901C35.6491 35.7613 35.9167 36.3451 35.9167 37.0417C35.9167 37.7382 35.6491 38.322 35.1141 38.7932C34.579 39.2644 33.916 39.5 33.125 39.5ZM21.9583 39.5C21.1674 39.5 20.5043 39.2644 19.9693 38.7932C19.4342 38.322 19.1667 37.7382 19.1667 37.0417C19.1667 36.3451 19.4342 35.7613 19.9693 35.2901C20.5043 34.8189 21.1674 34.5833 21.9583 34.5833C22.7493 34.5833 23.4123 34.8189 23.9474 35.2901C24.4825 35.7613 24.75 36.3451 24.75 37.0417C24.75 37.7382 24.4825 38.322 23.9474 38.7932C23.4123 39.2644 22.7493 39.5 21.9583 39.5ZM44.2917 39.5C43.5007 39.5 42.8377 39.2644 42.3026 38.7932C41.7675 38.322 41.5 37.7382 41.5 37.0417C41.5 36.3451 41.7675 35.7613 42.3026 35.2901C42.8377 34.8189 43.5007 34.5833 44.2917 34.5833C45.0826 34.5833 45.7457 34.8189 46.2807 35.2901C46.8158 35.7613 47.0833 36.3451 47.0833 37.0417C47.0833 37.7382 46.8158 38.322 46.2807 38.7932C45.7457 39.2644 45.0826 39.5 44.2917 39.5ZM33.125 49.3333C32.334 49.3333 31.671 49.0977 31.1359 48.6266C30.6009 48.1554 30.3333 47.5715 30.3333 46.875C30.3333 46.1785 30.6009 45.5946 31.1359 45.1234C31.671 44.6523 32.334 44.4167 33.125 44.4167C33.916 44.4167 34.579 44.6523 35.1141 45.1234C35.6491 45.5946 35.9167 46.1785 35.9167 46.875C35.9167 47.5715 35.6491 48.1554 35.1141 48.6266C34.579 49.0977 33.916 49.3333 33.125 49.3333ZM21.9583 49.3333C21.1674 49.3333 20.5043 49.0977 19.9693 48.6266C19.4342 48.1554 19.1667 47.5715 19.1667 46.875C19.1667 46.1785 19.4342 45.5946 19.9693 45.1234C20.5043 44.6523 21.1674 44.4167 21.9583 44.4167C22.7493 44.4167 23.4123 44.6523 23.9474 45.1234C24.4825 45.5946 24.75 46.1785 24.75 46.875C24.75 47.5715 24.4825 48.1554 23.9474 48.6266C23.4123 49.0977 22.7493 49.3333 21.9583 49.3333ZM44.2917 49.3333C43.5007 49.3333 42.8377 49.0977 42.3026 48.6266C41.7675 48.1554 41.5 47.5715 41.5 46.875C41.5 46.1785 41.7675 45.5946 42.3026 45.1234C42.8377 44.6523 43.5007 44.4167 44.2917 44.4167C45.0826 44.4167 45.7457 44.6523 46.2807 45.1234C46.8158 45.5946 47.0833 46.1785 47.0833 46.875C47.0833 47.5715 46.8158 48.1554 46.2807 48.6266C45.7457 49.0977 45.0826 49.3333 44.2917 49.3333Z" fill="white"/>
</g>
<defs>
<clipPath id="clip0_60_2">
<rect width="67" height="59" fill="white"/>
</clipPath>
</defs>
</svg>
