<svg width="37" height="52" viewBox="0 0 37 52" fill="none" xmlns="http://www.w3.org/2000/svg">
<path d="M18.5 37.635C22.8607 34.1683 26.1533 30.8317 28.3777 27.625C30.6021 24.4183 31.7143 21.4067 31.7143 18.59C31.7143 16.1633 31.2628 14.0942 30.3598 12.3825C29.4568 10.6708 28.3446 9.28417 27.0232 8.2225C25.7018 7.16083 24.2702 6.39167 22.7286 5.915C21.1869 5.43833 19.7774 5.2 18.5 5.2C17.2226 5.2 15.8131 5.43833 14.2714 5.915C12.7298 6.39167 11.2982 7.16083 9.97679 8.2225C8.65536 9.28417 7.54315 10.6708 6.64018 12.3825C5.7372 14.0942 5.28571 16.1633 5.28571 18.59C5.28571 21.4067 6.39792 24.4183 8.62232 27.625C10.8467 30.8317 14.1393 34.1683 18.5 37.635ZM18.5 44.2C12.2893 39.6933 7.65327 35.3167 4.59196 31.07C1.53065 26.8233 0 22.6633 0 18.59C0 15.5133 0.561607 12.8158 1.68482 10.4975C2.80804 8.17917 4.2506 6.24 6.0125 4.68C7.7744 3.12 9.75655 1.95 11.9589 1.17C14.1613 0.39 16.3417 0 18.5 0C20.6583 0 22.8387 0.39 25.0411 1.17C27.2435 1.95 29.2256 3.12 30.9875 4.68C32.7494 6.24 34.192 8.17917 35.3152 10.4975C36.4384 12.8158 37 15.5133 37 18.59C37 22.6633 35.4693 26.8233 32.408 31.07C29.3467 35.3167 24.7107 39.6933 18.5 44.2ZM18.5 23.4C19.9536 23.4 21.1979 22.8908 22.233 21.8725C23.2682 20.8542 23.7857 19.63 23.7857 18.2C23.7857 16.77 23.2682 15.5458 22.233 14.5275C21.1979 13.5092 19.9536 13 18.5 13C17.0464 13 15.8021 13.5092 14.767 14.5275C13.7318 15.5458 13.2143 16.77 13.2143 18.2C13.2143 19.63 13.7318 20.8542 14.767 21.8725C15.8021 22.8908 17.0464 23.4 18.5 23.4ZM0 52V46.8H37V52H0Z" fill="white"/>
</svg>
