<svg width="125" height="125" viewBox="0 0 125 125" fill="none" xmlns="http://www.w3.org/2000/svg">
<path d="M26.0417 109.375C24.566 109.375 23.329 108.876 22.3308 107.878C21.3325 106.879 20.8334 105.642 20.8334 104.167V98.9583C16.4931 98.9583 12.8039 97.4392 9.76567 94.401C6.72747 91.3628 5.20837 87.6736 5.20837 83.3333V57.2917C5.20837 52.9514 6.72747 49.2621 9.76567 46.224C12.8039 43.1858 16.4931 41.6667 20.8334 41.6667V31.25C20.8334 26.9097 22.3525 23.2205 25.3907 20.1823C28.4289 17.1441 32.1181 15.625 36.4584 15.625H88.5417C92.882 15.625 96.5712 17.1441 99.6094 20.1823C102.648 23.2205 104.167 26.9097 104.167 31.25V41.6667C108.507 41.6667 112.196 43.1858 115.234 46.224C118.273 49.2621 119.792 52.9514 119.792 57.2917V83.3333C119.792 87.6736 118.273 91.3628 115.234 94.401C112.196 97.4392 108.507 98.9583 104.167 98.9583V104.167C104.167 105.642 103.668 106.879 102.669 107.878C101.671 108.876 100.434 109.375 98.9584 109.375C97.4827 109.375 96.2457 108.876 95.2474 107.878C94.2492 106.879 93.75 105.642 93.75 104.167V98.9583H31.25V104.167C31.25 105.642 30.7509 106.879 29.7526 107.878C28.7544 108.876 27.5174 109.375 26.0417 109.375ZM20.8334 88.5417H104.167C105.642 88.5417 106.879 88.0425 107.878 87.0443C108.876 86.046 109.375 84.809 109.375 83.3333V57.2917C109.375 55.816 108.876 54.579 107.878 53.5807C106.879 52.5825 105.642 52.0833 104.167 52.0833C102.691 52.0833 101.454 52.5825 100.456 53.5807C99.4575 54.579 98.9584 55.816 98.9584 57.2917V78.125H26.0417V57.2917C26.0417 55.816 25.5426 54.579 24.5443 53.5807C23.546 52.5825 22.3091 52.0833 20.8334 52.0833C19.3577 52.0833 18.1207 52.5825 17.1224 53.5807C16.1242 54.579 15.625 55.816 15.625 57.2917V83.3333C15.625 84.809 16.1242 86.046 17.1224 87.0443C18.1207 88.0425 19.3577 88.5417 20.8334 88.5417ZM36.4584 67.7083H88.5417V57.2917C88.5417 54.9479 89.0191 52.8212 89.974 50.9115C90.9289 49.0017 92.1875 47.309 93.75 45.8333V31.25C93.75 29.7743 93.2509 28.5373 92.2526 27.5391C91.2544 26.5408 90.0174 26.0417 88.5417 26.0417H36.4584C34.9827 26.0417 33.7457 26.5408 32.7474 27.5391C31.7492 28.5373 31.25 29.7743 31.25 31.25V45.8333C32.8125 47.309 34.0712 49.0017 35.0261 50.9115C35.9809 52.8212 36.4584 54.9479 36.4584 57.2917V67.7083Z" fill="white"/>
</svg>
